# xmcd
#
# Track frame offsets: 
#        200
#        17360
#        46210
#        66840
#
# Disc length: 1156 seconds
#
# Revision: 0
# Processed by: cddbd v1.5.2PL0 Copyright (c) Steve Scherf et al.
# Submitted via: ExactAudioCopyFreeDBPlugin 1.0
#
DISCID=27048204
DTITLE=Guy - Do Me Right [CDS)
DYEAR=1991
DGENRE=Funk
TTITLE0=Do Me Right (7'' Edit)
TTITLE1=Do Me Right (Extended Club Version)
TTITLE2=Do Me Right (Piano Percapella)
TTITLE3=Do Me Right (Remixed Radio Edit)
EXTD=
EXTT0=
EXTT1=
EXTT2=
EXTT3=
PLAYORDER=
